<svg width="16" height="16" viewBox="0 0 16 16" fill="none" xmlns="http://www.w3.org/2000/svg">
<g clip-path="url(#clip0_20_9405)">
<path d="M10 3.84265C9.79312 3.84265 9.58907 3.79451 9.404 3.70203L6.596 2.29803C6.41094 2.20555 6.20689 2.15741 6 2.15741M10 3.84265C10.2069 3.84265 10.4109 3.79451 10.596 3.70203L13.0353 2.48203C13.1371 2.4312 13.2501 2.40724 13.3637 2.41241C13.4773 2.41758 13.5876 2.45172 13.6843 2.51158C13.781 2.57145 13.8607 2.65504 13.916 2.75442C13.9713 2.8538 14.0002 2.96566 14 3.07936V11.5887C13.9999 11.7125 13.9654 11.8338 13.9003 11.939C13.8352 12.0443 13.7421 12.1294 13.6313 12.1847L10.596 13.7027C10.4109 13.7952 10.2069 13.8433 10 13.8433C9.79312 13.8433 9.58907 13.7952 9.404 13.7027L6.596 12.2987C6.41094 12.2062 6.20689 12.1581 6 12.1581C5.79312 12.1581 5.58907 12.2062 5.404 12.2987L2.96467 13.5187C2.8629 13.5696 2.74982 13.5935 2.63617 13.5883C2.52253 13.5831 2.41211 13.5489 2.31541 13.489C2.21872 13.429 2.13898 13.3453 2.08377 13.2459C2.02856 13.1464 1.99972 13.0345 2 12.9207V4.41203C2.00007 4.28826 2.03459 4.16694 2.0997 4.06168C2.16482 3.95642 2.25795 3.87136 2.36867 3.81603L5.404 2.29803C5.58907 2.20555 5.79312 2.15741 6 2.15741M10 3.84265L10 13.8426M6 2.15741L6 12.1574" stroke="#64748B" stroke-linecap="round" stroke-linejoin="round"/>
</g>
<defs>
<clipPath id="clip0_20_9405">
<rect width="16" height="16" fill="white"/>
</clipPath>
</defs>
</svg>
